<svg width="102" height="22" viewBox="0 0 102 22" fill="none" xmlns="http://www.w3.org/2000/svg">
<path d="M50.8475 20.3333C45.6055 20.3333 41.356 16.1546 41.356 11C41.356 5.84533 45.6055 1.66666 50.8475 1.66666C56.0895 1.66666 60.339 5.84533 60.339 11C60.339 16.1546 56.0895 20.3333 50.8475 20.3333ZM50.8475 20.3333V9.66666C50.8475 8.1939 52.0616 6.99999 53.5593 6.99999H54.2373M47.4577 12.3333H54.2373" stroke="#27AE60" stroke-width="2"/>
<g clip-path="url(#clip0_1734_58)">
<path d="M94.8498 3.93051C94.7338 3.92798 94.6184 3.93599 94.5055 3.95411C93.8284 4.06283 93.2332 4.529 93.0034 5.20492C92.9535 5.35181 92.9084 5.49875 92.871 5.64763C92.2994 5.59614 91.8215 5.5866 91.5253 5.5866C91.2292 5.5866 90.7513 5.59614 90.1797 5.64763C90.1423 5.49901 90.0971 5.35237 90.0473 5.20574C89.8175 4.52982 89.2223 4.06364 88.5452 3.95492C88.3195 3.91869 88.0843 3.92268 87.8508 3.9712C86.9144 4.16595 85.5769 4.54381 84.5222 5.38559C84.5109 5.3947 84.4998 5.4042 84.4891 5.41407C84.1563 5.71939 83.9267 6.13166 83.6433 6.7129C83.36 7.29414 83.0661 8.02532 82.7959 8.8589C82.2554 10.526 81.811 12.5991 81.811 14.654C81.8111 14.7615 81.8393 14.8671 81.893 14.9608C82.8868 16.695 85.0446 17.3525 86.3661 17.6146C87.0951 17.7591 87.8461 17.4647 88.2812 16.8716L88.805 16.1571C89.5881 16.3183 90.4945 16.4248 91.5253 16.4248C92.5562 16.4248 93.4626 16.3183 94.2457 16.1571L94.7687 16.8708C95.2036 17.4646 95.9555 17.7583 96.6846 17.6138C98.0061 17.3517 100.163 16.6941 101.157 14.96C101.211 14.8663 101.239 14.7607 101.239 14.6532C101.239 12.5983 100.795 10.5252 100.255 8.85808C99.9846 8.02453 99.6899 7.29333 99.4065 6.71209C99.1232 6.13084 98.8934 5.71858 98.5607 5.41326C98.55 5.40339 98.539 5.39389 98.5276 5.38478C97.473 4.54305 96.136 4.16514 95.199 3.97039C95.0823 3.94613 94.9658 3.93304 94.8498 3.93051ZM94.8175 5.1797C94.8564 5.18087 94.8962 5.18529 94.9359 5.19353C95.7639 5.36563 96.9265 5.73218 97.7033 6.34262C97.7555 6.39446 98.0128 6.74469 98.2603 7.25245C98.5121 7.76895 98.789 8.4532 99.0432 9.23731C99.5342 10.7517 99.9214 12.6425 99.9486 14.4595C99.2455 15.5109 97.5276 16.1711 96.433 16.3882C96.1909 16.4362 95.9505 16.3445 95.8007 16.14L95.5549 15.8055C95.8093 15.7206 96.0486 15.6325 96.2617 15.5435C97.327 15.0985 97.916 14.6133 97.916 14.6133C97.9796 14.56 98.0318 14.495 98.0698 14.4218C98.1077 14.3487 98.1307 14.2689 98.1373 14.1871C98.1439 14.1053 98.1341 14.0229 98.1083 13.9448C98.0826 13.8667 98.0415 13.7944 97.9873 13.7319C97.9331 13.6694 97.8669 13.6181 97.7926 13.5807C97.7182 13.5434 97.6371 13.5209 97.5538 13.5144C97.4706 13.5079 97.3869 13.5176 97.3075 13.5429C97.228 13.5682 97.1545 13.6087 97.0909 13.662C97.0909 13.662 96.6894 14.0075 95.7651 14.3936C94.8408 14.7796 93.4345 15.1748 91.5253 15.1748C89.6162 15.1748 88.2099 14.7796 87.2856 14.3936C86.3613 14.0075 85.9598 13.662 85.9598 13.662C85.8472 13.5647 85.7033 13.5096 85.5534 13.5065C85.4214 13.5037 85.2918 13.5413 85.1825 13.6143C85.0733 13.6872 84.9898 13.7918 84.9438 13.9135C84.8977 14.0352 84.8914 14.1679 84.9256 14.2933C84.9598 14.4188 85.0329 14.5306 85.1347 14.6133C85.1347 14.6133 85.7237 15.0985 86.789 15.5435C87.0021 15.6325 87.2414 15.7206 87.4958 15.8055L87.25 16.1408C87.0995 16.346 86.8591 16.4378 86.6169 16.3898C85.5223 16.1728 83.8043 15.5117 83.1013 14.4603C83.1284 12.6433 83.5157 10.7526 84.0066 9.23813C84.2608 8.45399 84.5386 7.76974 84.7904 7.25326C85.0379 6.74554 85.2946 6.39508 85.3465 6.34343C86.1233 5.73304 87.2864 5.36646 88.114 5.19435C88.4311 5.12843 88.7368 5.29412 88.8415 5.60206C88.8687 5.68207 88.8884 5.75614 88.9093 5.83074C87.9621 6.01556 86.9054 6.33653 85.9043 6.92123C85.8296 6.96159 85.7638 7.01633 85.711 7.0822C85.6582 7.14806 85.6194 7.2237 85.597 7.30461C85.5745 7.38552 85.5689 7.47004 85.5803 7.55315C85.5918 7.63626 85.6201 7.71625 85.6637 7.78836C85.7072 7.86047 85.7651 7.92322 85.8338 7.97288C85.9026 8.02254 85.9808 8.05809 86.0638 8.07741C86.1467 8.09673 86.2328 8.09944 86.3169 8.08536C86.401 8.07128 86.4813 8.0407 86.5532 7.99545C88.3994 6.91709 90.6811 6.8366 91.5253 6.8366C92.3696 6.8366 94.6513 6.91709 96.4975 7.99545C96.5694 8.0407 96.6497 8.07128 96.7338 8.08536C96.8179 8.09944 96.904 8.09673 96.9869 8.07741C97.0699 8.05809 97.1481 8.02254 97.2169 7.97288C97.2856 7.92322 97.3435 7.86047 97.387 7.78836C97.4306 7.71625 97.4589 7.63626 97.4704 7.55315C97.4818 7.47004 97.4762 7.38552 97.4537 7.30461C97.4313 7.2237 97.3925 7.14806 97.3397 7.0822C97.2869 7.01633 97.2211 6.96159 97.1464 6.92123C96.145 6.33636 95.088 6.01553 94.1406 5.83074C94.1615 5.75593 94.1811 5.68152 94.2084 5.60125C94.3 5.3318 94.5451 5.17146 94.8175 5.1797ZM88.786 10.1667C88.3977 10.1686 88.026 10.3433 87.752 10.6525C87.4781 10.9617 87.3243 11.3803 87.3243 11.8167C87.3243 12.253 87.4781 12.6716 87.752 12.9808C88.026 13.29 88.3977 13.4647 88.786 13.4666C89.1743 13.4647 89.546 13.29 89.82 12.9808C90.0939 12.6716 90.2477 12.253 90.2477 11.8167C90.2477 11.3803 90.0939 10.9617 89.82 10.6525C89.546 10.3433 89.1743 10.1686 88.786 10.1667ZM94.2564 10.1667C93.8631 10.1667 93.4859 10.3423 93.2077 10.6548C92.9296 10.9674 92.7734 11.3913 92.7734 11.8333C92.7734 12.2754 92.9296 12.6993 93.2077 13.0119C93.4859 13.3244 93.8631 13.5 94.2564 13.5C94.6497 13.5 95.027 13.3244 95.3051 13.0119C95.5832 12.6993 95.7395 12.2754 95.7395 11.8333C95.7395 11.3913 95.5832 10.9674 95.3051 10.6548C95.027 10.3423 94.6497 10.1667 94.2564 10.1667Z" fill="#27AE60"/>
</g>
<path d="M4.23727 3.5C3.30083 3.5 2.54236 4.24583 2.54236 5.16667V16.8333C2.54236 17.7542 3.30083 18.5 4.23727 18.5H16.1017C17.0381 18.5 17.7966 17.7542 17.7966 16.8333V5.16667C17.7966 4.24583 17.0381 3.5 16.1017 3.5H4.23727ZM4.23727 5.16667H16.1017V16.8333H4.23727V5.16667ZM6.59261 6.26367C5.86634 6.26367 5.43067 6.69298 5.43067 7.26465C5.43067 7.83632 5.86639 8.264 6.51978 8.264C7.24605 8.264 7.68173 7.83632 7.68173 7.26465C7.68173 6.69298 7.246 6.26367 6.59261 6.26367ZM5.4886 9.33333V15.1667H7.6271V9.33333H5.4886ZM9.39154 9.33333V15.1667H11.53V11.9782C11.53 11.029 12.2187 10.8926 12.4255 10.8926C12.6323 10.8926 13.1852 11.0965 13.1852 11.9782V15.1667H15.2542V11.9782C15.2542 10.1474 14.4269 9.33333 13.3921 9.33333C12.3574 9.33333 11.8055 9.67213 11.53 10.1471V9.33333H9.39154Z" fill="#27AE60"/>
<defs>
<clipPath id="clip0_1734_58">
<rect width="20.339" height="20" fill="white" transform="translate(81.3558 1)"/>
</clipPath>
</defs>
</svg>
